{
    "asset" : {
        "generator" : "Khronos glTF Blender I/O v1.1.45",
        "version" : "2.0"
    },
    "extensionsUsed" : [
        "MOZ_text"
    ],
    "scene" : 0,
    "scenes" : [
        {
            "name" : "Scene",
            "nodes" : [
                0,
                1,
                2,
                3
            ]
        }
    ],
    "nodes" : [
        {
            "extensions" : {
                "MOZ_text" : {
                    "index" : 0,
                    "type" : "sdf",
                    "alignX" : "center",
                    "alignY" : "center",
                    "offsetX" : 0,
                    "offsetY" : 0,
                    "value" : "Lorem\nIPSUM",
                    "fontName" : "Impact",
                    "fontFile" : "Impact.ttf",
                    "size" : 1.247999906539917,
                    "letterSpacing" : 0.10000002384185791,
                    "lineSpacing" : 0.7000000476837158,
                    "color" : [
                        0.8000000715255737,
                        0.19215862452983856,
                        0.17269723117351532
                    ]
                }
            },
            "name" : "Text",
            "rotation" : [
                0.7071067690849304,
                0,
                0,
                0.7071067690849304
            ],
            "translation" : [
                0,
                0.3041502833366394,
                0.09999999403953552
            ]
        },
        {
            "mesh" : 0,
            "name" : "Plane",
            "rotation" : [
                0.7071067690849304,
                0,
                0,
                0.7071067690849304
            ]
        },
        {
            "extensions" : {
                "MOZ_text" : {
                    "index" : 1,
                    "type" : "sdf",
                    "alignX" : "center",
                    "alignY" : "center",
                    "offsetX" : 0,
                    "offsetY" : 0,
                    "value" : "Lorem\nIPSUM",
                    "fontName" : "Georgia",
                    "fontFile" : "Georgia.ttf",
                    "size" : 1,
                    "letterSpacing" : -0.10000002384185791,
                    "lineSpacing" : 1.0000001192092896,
                    "color" : [
                        0.8000000715255737,
                        0.19215862452983856,
                        0.17269723117351532
                    ]
                }
            },
            "name" : "Text.001",
            "rotation" : [
                0.7071067690849304,
                0,
                0,
                0.7071067690849304
            ],
            "translation" : [
                0,
                -1.3189244270324707,
                0.09999999403953552
            ]
        },
        {
            "extensions" : {
                "MOZ_text" : {
                    "index" : 2,
                    "type" : "sdf",
                    "alignX" : "center",
                    "alignY" : "center",
                    "offsetX" : 0,
                    "offsetY" : 0,
                    "value" : "Lorem\nIPSUM",
                    "fontName" : "ArialMT",
                    "fontFile" : "Arial.ttf",
                    "size" : 1,
                    "letterSpacing" : 1.3999998569488525,
                    "lineSpacing" : 0.5,
                    "color" : [
                        0.8000000715255737,
                        0.19215862452983856,
                        0.17269723117351532
                    ]
                }
            },
            "name" : "Text.002",
            "rotation" : [
                0.7071067690849304,
                0,
                0,
                0.7071067690849304
            ],
            "translation" : [
                0,
                1.905092477798462,
                0.09999999403953552
            ]
        }
    ],
    "materials" : [
        {
            "doubleSided" : true,
            "emissiveFactor" : [
                0,
                0,
                0
            ],
            "name" : "Material.004",
            "pbrMetallicRoughness" : {
                "baseColorFactor" : [
                    0.09817364811897278,
                    0.529207170009613,
                    0.8000000715255737,
                    1
                ],
                "metallicFactor" : 0,
                "roughnessFactor" : 0.5
            }
        }
    ],
    "meshes" : [
        {
            "name" : "Plane",
            "primitives" : [
                {
                    "attributes" : {
                        "POSITION" : 0,
                        "NORMAL" : 1,
                        "TEXCOORD_0" : 2
                    },
                    "indices" : 3,
                    "material" : 0
                }
            ]
        }
    ],
    "accessors" : [
        {
            "bufferView" : 0,
            "componentType" : 5126,
            "count" : 32,
            "max" : [
                1.8382400274276733,
                1.040037602706434e-07,
                3.601489782333374
            ],
            "min" : [
                -1.8382400274276733,
                -8.061077494403435e-08,
                -3.4391820430755615
            ],
            "type" : "VEC3"
        },
        {
            "bufferView" : 1,
            "componentType" : 5126,
            "count" : 32,
            "type" : "VEC3"
        },
        {
            "bufferView" : 2,
            "componentType" : 5126,
            "count" : 32,
            "type" : "VEC2"
        },
        {
            "bufferView" : 3,
            "componentType" : 5123,
            "count" : 48,
            "type" : "SCALAR"
        }
    ],
    "bufferViews" : [
        {
            "buffer" : 0,
            "byteLength" : 384,
            "byteOffset" : 0
        },
        {
            "buffer" : 0,
            "byteLength" : 384,
            "byteOffset" : 384
        },
        {
            "buffer" : 0,
            "byteLength" : 256,
            "byteOffset" : 768
        },
        {
            "buffer" : 0,
            "byteLength" : 96,
            "byteOffset" : 1024
        }
    ],
    "buffers" : [
        {
            "byteLength" : 1120,
            "uri" : "data:application/octet-stream;base64,"
        }
    ]
}
