{
    "asset" : {
        "generator" : "Khronos glTF Blender I/O v1.1.45",
        "version" : "2.0"
    },
    "extensionsUsed" : [
        "MOZ_text"
    ],
    "scene" : 0,
    "scenes" : [
        {
            "name" : "Scene",
            "nodes" : [
                0,
                1,
                2,
                3
            ]
        }
    ],
    "nodes" : [
        {
            "extensions" : {
                "MOZ_text" : {
                    "index" : 0,
                    "type" : "sdf",
                    "color" : [
                        1.0,
                        1.0,
                        1.0,
                        1.0
                    ],
                    "alignX" : "center",
                    "alignY" : "center",
                    "value" : "SDF \nthis is a test",
                    "fontName" : "Impact",
                    "fontFile" : "Impact.ttf",
                    "size" : 2,
                    "maxWidth" : 0,
                    "overflow" : "NONE",
                    "letterSpacing" : 0,
                    "lineSpacing" : 0.5,
                    "dimensions" : [
                        6.591723442077637,
                        2.0928640365600586
                    ],
                    "extrude" : 0,
                    "extrudeResolution" : 12,
                    "bevel" : 0,
                    "bevelOffset" : 0,
                    "bevelResolution" : 4
                }
            },
            "name" : "Text",
            "rotation" : [
                0.7071067690849304,
                0,
                0,
                0.7071068286895752
            ],
            "translation" : [
                0,
                4.204799652099609,
                0
            ]
        },
        {
            "extensions" : {
                "MOZ_text" : {
                    "index" : 1,
                    "type" : "geometry",
                    "color" : [
                        1.0,
                        0.986351490020752,
                        1.0,
                        1.0
                    ],
                    "alignX" : "left",
                    "alignY" : "top",
                    "value" : "Geometry \nthis is a test",
                    "fontName" : "Impact",
                    "fontFile" : "Impact.ttf",
                    "size" : 2,
                    "maxWidth" : 0,
                    "overflow" : "NONE",
                    "letterSpacing" : 0,
                    "lineSpacing" : 0.5600000023841858,
                    "dimensions" : [
                        6.631723403930664,
                        2.2531790733337402
                    ],
                    "extrude" : 0.6399999260902405,
                    "extrudeResolution" : 2,
                    "bevel" : 0.03999999165534973,
                    "bevelOffset" : -0.019999980926513672,
                    "bevelResolution" : 1
                }
            },
            "name" : "Text.002",
            "rotation" : [
                0.7071067690849304,
                0,
                0,
                0.7071068286895752
            ],
            "translation" : [
                -3.314697742462158,
                -0.32887446880340576,
                0
            ]
        },
        {
            "extensions" : {
                "MOZ_text" : {
                    "index" : 2,
                    "type" : "texture",
                    "color" : [
                        1.0,
                        1.0,
                        1.0,
                        1.0
                    ],
                    "alignX" : "center",
                    "alignY" : "center",
                    "value" : "Texture \nthis is a test",
                    "fontName" : "Impact",
                    "fontFile" : "Impact.ttf",
                    "size" : 2,
                    "maxWidth" : 0,
                    "overflow" : "NONE",
                    "letterSpacing" : 0,
                    "lineSpacing" : 0.5,
                    "dimensions" : [
                        6.591723442077637,
                        2.070707082748413
                    ],
                    "extrude" : 0,
                    "extrudeResolution" : 12,
                    "bevel" : 0,
                    "bevelOffset" : 0,
                    "bevelResolution" : 4
                }
            },
            "name" : "Text.001",
            "rotation" : [
                0.7071067690849304,
                0,
                0,
                0.7071068286895752
            ],
            "translation" : [
                0,
                1.3620043992996216,
                0.051436007022857666
            ]
        },
        {
            "mesh" : 0,
            "name" : "Plane",
            "translation" : [
                0,
                0,
                -0.12198308855295181
            ]
        }
    ],
    "materials" : [
        {
            "doubleSided" : true,
            "emissiveFactor" : [
                0,
                0,
                0
            ],
            "name" : "Material.002",
            "pbrMetallicRoughness" : {
                "baseColorFactor" : [
                    0.03484096750617027,
                    0.1259651929140091,
                    0.010935947299003601,
                    1
                ],
                "metallicFactor" : 0,
                "roughnessFactor" : 0.5
            }
        }
    ],
    "meshes" : [
        {
            "name" : "Plane",
            "primitives" : [
                {
                    "attributes" : {
                        "POSITION" : 0,
                        "NORMAL" : 1,
                        "TEXCOORD_0" : 2
                    },
                    "indices" : 3,
                    "material" : 0
                }
            ]
        }
    ],
    "accessors" : [
        {
            "bufferView" : 0,
            "componentType" : 5126,
            "count" : 70,
            "max" : [
                4.996329307556152,
                6.826893329620361,
                0.010078459978103638
            ],
            "min" : [
                -5.157411575317383,
                -4.638166904449463,
                0.010077983140945435
            ],
            "type" : "VEC3"
        },
        {
            "bufferView" : 1,
            "componentType" : 5126,
            "count" : 70,
            "type" : "VEC3"
        },
        {
            "bufferView" : 2,
            "componentType" : 5126,
            "count" : 70,
            "type" : "VEC2"
        },
        {
            "bufferView" : 3,
            "componentType" : 5123,
            "count" : 108,
            "type" : "SCALAR"
        }
    ],
    "bufferViews" : [
        {
            "buffer" : 0,
            "byteLength" : 840,
            "byteOffset" : 0
        },
        {
            "buffer" : 0,
            "byteLength" : 840,
            "byteOffset" : 840
        },
        {
            "buffer" : 0,
            "byteLength" : 560,
            "byteOffset" : 1680
        },
        {
            "buffer" : 0,
            "byteLength" : 216,
            "byteOffset" : 2240
        }
    ],
    "buffers" : [
        {
            "byteLength" : 2456,
            "uri" : "data:application/octet-stream;base64,"
        }
    ]
}
