{
    "asset" : {
        "generator" : "Khronos glTF Blender I/O v1.1.45",
        "version" : "2.0"
    },
    "extensionsUsed" : [
        "MOZ_text"
    ],
    "scene" : 0,
    "scenes" : [
        {
            "name" : "Scene",
            "nodes" : [
                0,
                1,
                2,
                3,
                4,
                5
            ]
        }
    ],
    "nodes" : [
        {
            "extensions" : {
                "MOZ_text" : {
                    "index" : 0,
                    "type" : "sdf",
                    "color" : [
                        1.0,
                        1.0,
                        1.0,
                        1.0
                    ],
                    "alignX" : "center",
                    "alignY" : "top",
                    "value" : "abc\ndef\nGHI\nJKL",
                    "fontName" : "ArialMT",
                    "fontFile" : "fonts/Arial.ttf",
                    "size" : 1,
                    "maxWidth" : 0,
                    "overflow" : "NONE",
                    "letterSpacing" : 0,
                    "lineSpacing" : 0.75,
                    "dimensions" : [
                        1.5930001735687256,
                        3.1619999408721924
                    ]
                }
            },
            "name" : "Text",
            "rotation" : [
                0.7071067690849304,
                0,
                0,
                0.7071068286895752
            ],
            "translation" : [
                -1.9517333507537842,
                2.6924829483032227,
                0.0392022468149662
            ]
        },
        {
            "extensions" : {
                "MOZ_text" : {
                    "index" : 1,
                    "type" : "sdf",
                    "color" : [
                        1.0,
                        1.0,
                        1.0,
                        1.0
                    ],
                    "alignX" : "center",
                    "alignY" : "top",
                    "value" : "abc\ndef\nGHI\nJKL",
                    "fontName" : "ArialMT",
                    "fontFile" : "fonts/Arial.ttf",
                    "size" : 1,
                    "maxWidth" : 0,
                    "overflow" : "NONE",
                    "letterSpacing" : 0,
                    "lineSpacing" : 1,
                    "dimensions" : [
                        1.5930001735687256,
                        3.9119997024536133
                    ]
                }
            },
            "name" : "Text.001",
            "rotation" : [
                0.7071067690849304,
                0,
                0,
                0.7071068286895752
            ],
            "translation" : [
                0.005494356155395508,
                2.6924829483032227,
                0.0392022468149662
            ]
        },
        {
            "extensions" : {
                "MOZ_text" : {
                    "index" : 2,
                    "type" : "sdf",
                    "color" : [
                        1.0,
                        1.0,
                        1.0,
                        1.0
                    ],
                    "alignX" : "center",
                    "alignY" : "top",
                    "value" : "abc\ndef\nGHI\nJKL",
                    "fontName" : "ArialMT",
                    "fontFile" : "fonts/Arial.ttf",
                    "size" : 1,
                    "maxWidth" : 0,
                    "overflow" : "NONE",
                    "letterSpacing" : 0,
                    "lineSpacing" : 0.5,
                    "dimensions" : [
                        1.5930001735687256,
                        2.4119999408721924
                    ]
                }
            },
            "name" : "Text.002",
            "rotation" : [
                0.7071067690849304,
                0,
                0,
                0.7071068286895752
            ],
            "translation" : [
                -3.9276013374328613,
                2.6924829483032227,
                0.0392022468149662
            ]
        },
        {
            "extensions" : {
                "MOZ_text" : {
                    "index" : 3,
                    "type" : "sdf",
                    "color" : [
                        1.0,
                        1.0,
                        1.0,
                        1.0
                    ],
                    "alignX" : "center",
                    "alignY" : "top",
                    "value" : "abc\ndef\nGHI\nJKL",
                    "fontName" : "ArialMT",
                    "fontFile" : "fonts/Arial.ttf",
                    "size" : 1,
                    "maxWidth" : 0,
                    "overflow" : "NONE",
                    "letterSpacing" : 0,
                    "lineSpacing" : 1.5,
                    "dimensions" : [
                        1.5930001735687256,
                        5.4120001792907715
                    ]
                }
            },
            "name" : "Text.003",
            "rotation" : [
                0.7071067690849304,
                0,
                0,
                0.7071068286895752
            ],
            "translation" : [
                4.069072723388672,
                2.6924829483032227,
                0.0392022468149662
            ]
        },
        {
            "extensions" : {
                "MOZ_text" : {
                    "index" : 4,
                    "type" : "sdf",
                    "color" : [
                        1.0,
                        1.0,
                        1.0,
                        1.0
                    ],
                    "alignX" : "center",
                    "alignY" : "top",
                    "value" : "abc\ndef\nGHI\nJKL",
                    "fontName" : "ArialMT",
                    "fontFile" : "fonts/Arial.ttf",
                    "size" : 1,
                    "maxWidth" : 0,
                    "overflow" : "NONE",
                    "letterSpacing" : 0,
                    "lineSpacing" : 1.25,
                    "dimensions" : [
                        1.5930001735687256,
                        4.6620001792907715
                    ]
                }
            },
            "name" : "Text.004",
            "rotation" : [
                0.7071067690849304,
                0,
                0,
                0.7071068286895752
            ],
            "translation" : [
                2.0372836589813232,
                2.6924829483032227,
                0.0392022468149662
            ]
        },
        {
            "mesh" : 0,
            "name" : "Plane.001",
            "translation" : [
                -5.6806206703186035,
                -0.186402827501297,
                0.007173687219619751
            ]
        }
    ],
    "materials" : [
        {
            "doubleSided" : true,
            "emissiveFactor" : [
                0,
                0,
                0
            ],
            "name" : "Material.002",
            "pbrMetallicRoughness" : {
                "baseColorFactor" : [
                    0.4819340705871582,
                    0.020676877349615097,
                    0.11108145862817764,
                    1
                ],
                "metallicFactor" : 0,
                "roughnessFactor" : 0.5
            }
        }
    ],
    "meshes" : [
        {
            "name" : "Plane.003",
            "primitives" : [
                {
                    "attributes" : {
                        "POSITION" : 0,
                        "NORMAL" : 1,
                        "TEXCOORD_0" : 2
                    },
                    "indices" : 3,
                    "material" : 0
                }
            ]
        }
    ],
    "accessors" : [
        {
            "bufferView" : 0,
            "componentType" : 5126,
            "count" : 36,
            "max" : [
                11.320137023925781,
                3.4544122219085693,
                3.5762786865234375e-07
            ],
            "min" : [
                0.2135324478149414,
                -3.0401837825775146,
                -3.5762786865234375e-07
            ],
            "type" : "VEC3"
        },
        {
            "bufferView" : 1,
            "componentType" : 5126,
            "count" : 36,
            "type" : "VEC3"
        },
        {
            "bufferView" : 2,
            "componentType" : 5126,
            "count" : 36,
            "type" : "VEC2"
        },
        {
            "bufferView" : 3,
            "componentType" : 5123,
            "count" : 48,
            "type" : "SCALAR"
        }
    ],
    "bufferViews" : [
        {
            "buffer" : 0,
            "byteLength" : 432,
            "byteOffset" : 0
        },
        {
            "buffer" : 0,
            "byteLength" : 432,
            "byteOffset" : 432
        },
        {
            "buffer" : 0,
            "byteLength" : 288,
            "byteOffset" : 864
        },
        {
            "buffer" : 0,
            "byteLength" : 96,
            "byteOffset" : 1152
        }
    ],
    "buffers" : [
        {
            "byteLength" : 1248,
            "uri" : "data:application/octet-stream;base64,"
        }
    ]
}
