{
    "asset" : {
        "generator" : "Khronos glTF Blender I/O v1.1.45",
        "version" : "2.0"
    },
    "extensionsUsed" : [
        "MOZ_text"
    ],
    "scene" : 0,
    "scenes" : [
        {
            "name" : "Scene",
            "nodes" : [
                0,
                1,
                2
            ]
        }
    ],
    "nodes" : [
        {
            "mesh" : 0,
            "name" : "Sphere",
            "scale" : [
                0.22926664352416992,
                0.22926664352416992,
                0.22926664352416992
            ],
            "translation" : [
                2.170236349105835,
                0.9469947218894958,
                -0.18840351700782776
            ]
        },
        {
            "extensions" : {
                "MOZ_text" : {
                    "index" : 0,
                    "alignX" : "center",
                    "alignY" : "top",
                    "offsetX" : 1.7999999523162842,
                    "offsetY" : 1.1999999284744263,
                    "value" : "Esta es una pruebas",
                    "fontName" : "ArialMT",
                    "fontFile" : "Arial.ttf",
                    "size" : 1.2999999523162842,
                    "letterSpacing" : 2.799999952316284,
                    "lineSpacing" : 1,
                    "color" : [
                        0.010064486414194107,
                        0.17368245124816895,
                        0.8000000715255737
                    ]
                }
            },
            "name" : "Text",
            "translation" : [
                -1.4165675640106201,
                1.3185806274414062,
                -0.0468255914747715
            ]
        },
        {
            "extensions" : {
                "MOZ_text" : {
                    "index" : 1,
                    "alignX" : "left",
                    "alignY" : "top_baseline",
                    "offsetX" : 0,
                    "offsetY" : 0,
                    "value" : "Disco chino filipino",
                    "fontName" : "ArialMT",
                    "fontFile" : "Arial.ttf",
                    "size" : 1,
                    "letterSpacing" : 1,
                    "lineSpacing" : 1,
                    "color" : [
                        0.8000000715255737,
                        0.5564032793045044,
                        0.183380588889122
                    ]
                }
            },
            "name" : "Text.001",
            "scale" : [
                2.7059836387634277,
                2.7059836387634277,
                2.7059836387634277
            ],
            "translation" : [
                1.3415484428405762,
                2.968902826309204,
                0.13411188125610352
            ]
        }
    ],
    "materials" : [
        {
            "doubleSided" : true,
            "emissiveFactor" : [
                0,
                0,
                0
            ],
            "name" : "Material",
            "pbrMetallicRoughness" : {
                "baseColorFactor" : [
                    0.800000011920929,
                    0.800000011920929,
                    0.800000011920929,
                    1
                ],
                "metallicFactor" : 0,
                "roughnessFactor" : 0.4000000059604645
            }
        }
    ],
    "meshes" : [
        {
            "name" : "Sphere",
            "primitives" : [
                {
                    "attributes" : {
                        "POSITION" : 0,
                        "NORMAL" : 1,
                        "TEXCOORD_0" : 2
                    },
                    "indices" : 3,
                    "material" : 0
                }
            ]
        }
    ],
    "accessors" : [
        {
            "bufferView" : 0,
            "componentType" : 5126,
            "count" : 559,
            "max" : [
                1.000000238418579,
                1,
                1.0000003576278687
            ],
            "min" : [
                -0.9999998211860657,
                -1,
                -1
            ],
            "type" : "VEC3"
        },
        {
            "bufferView" : 1,
            "componentType" : 5126,
            "count" : 559,
            "type" : "VEC3"
        },
        {
            "bufferView" : 2,
            "componentType" : 5126,
            "count" : 559,
            "type" : "VEC2"
        },
        {
            "bufferView" : 3,
            "componentType" : 5123,
            "count" : 2880,
            "type" : "SCALAR"
        }
    ],
    "bufferViews" : [
        {
            "buffer" : 0,
            "byteLength" : 6708,
            "byteOffset" : 0
        },
        {
            "buffer" : 0,
            "byteLength" : 6708,
            "byteOffset" : 6708
        },
        {
            "buffer" : 0,
            "byteLength" : 4472,
            "byteOffset" : 13416
        },
        {
            "buffer" : 0,
            "byteLength" : 5760,
            "byteOffset" : 17888
        }
    ],
    "buffers" : [
        {
            "byteLength" : 23648,
            "uri" : "data:application/octet-stream;base64,"
        }
    ]
}
